<?xml version="1.0" encoding="utf-8"?>
<!-- Generator: Adobe Illustrator 19.0.1, SVG Export Plug-In . SVG Version: 6.00 Build 0)  -->
<svg version="1.1" id="Слой_1" xmlns="http://www.w3.org/2000/svg" xmlns:xlink="http://www.w3.org/1999/xlink" x="0px" y="0px"
	 viewBox="0 0 200 150" style="enable-background:new 0 0 200 150;" xml:space="preserve">
<style type="text/css">
	.st0{fill:url(#SVGID_1_);}
	.st1{fill:url(#SVGID_2_);}
	.st2{fill:url(#SVGID_3_);}
</style>
<g>
	
		<image style="overflow:visible;opacity:0.4;" width="1574" height="1364" xlink:href="B2A7C409.png"  transform="matrix(0.24 0 0 0.24 -93.1454 -92.5865)">
	</image>
	<g>
		<g>
			<linearGradient id="SVGID_1_" gradientUnits="userSpaceOnUse" x1="21.8546" y1="103.3705" x2="44.6544" y2="103.3705">
				<stop  offset="0" style="stop-color:#2B90FC"/>
				<stop  offset="1" style="stop-color:#2367B0"/>
			</linearGradient>
			<path class="st0" d="M21.9,103.4C21.9,97.1,27,92,33.3,92c6.2,0,11.4,5.2,11.4,11.4c0,6.2-5.2,11.4-11.4,11.4
				C27,114.8,21.9,109.6,21.9,103.4z"/>
			<linearGradient id="SVGID_2_" gradientUnits="userSpaceOnUse" x1="50.0548" y1="71.0917" x2="118.4522" y2="71.0917">
				<stop  offset="0" style="stop-color:#2B90FC"/>
				<stop  offset="1" style="stop-color:#2367B0"/>
			</linearGradient>
			<path class="st1" d="M50.1,71.1c0-25.9,12.5-43.7,34.2-43.7c21.7,0,34.2,17.8,34.2,43.7s-12.5,43.7-34.2,43.7
				C62.5,114.8,50.1,97,50.1,71.1z M99.3,71.1c0-16.2-4.9-25-15-25c-10.1,0-15,8.8-15,25s4.9,25,15,25
				C94.3,96.1,99.3,87.3,99.3,71.1z"/>
			<linearGradient id="SVGID_3_" gradientUnits="userSpaceOnUse" x1="120.8555" y1="71.0922" x2="159.6133" y2="71.0922">
				<stop  offset="0" style="stop-color:#2B90FC"/>
				<stop  offset="1" style="stop-color:#2367B0"/>
			</linearGradient>
			<path class="st2" d="M159.6,29.1v84h-19.2V49.4l-14.9,4.1L120.9,37l22-7.9H159.6z"/>
		</g>
	</g>
</g>
</svg>
