<?xml version="1.0" encoding="utf-8"?>
<!-- Generator: Adobe Illustrator 19.0.1, SVG Export Plug-In . SVG Version: 6.00 Build 0)  -->
<svg version="1.1" id="Слой_1" xmlns="http://www.w3.org/2000/svg" xmlns:xlink="http://www.w3.org/1999/xlink" x="0px" y="0px"
	 viewBox="0 0 200 150" style="enable-background:new 0 0 200 150;" xml:space="preserve">
<style type="text/css">
	.st0{fill:url(#SVGID_1_);}
	.st1{fill:url(#SVGID_2_);}
	.st2{fill:url(#SVGID_3_);}
</style>
<g>
	
		<image style="overflow:visible;opacity:0.4;" width="1657" height="1364" xlink:href="C56C93CC.png"  transform="matrix(0.24 0 0 0.24 -100.1552 -90.586)">
	</image>
	<g>
		<g>
			<linearGradient id="SVGID_1_" gradientUnits="userSpaceOnUse" x1="14.8448" y1="105.371" x2="37.6446" y2="105.371">
				<stop  offset="0" style="stop-color:#2B90FC"/>
				<stop  offset="1" style="stop-color:#2367B0"/>
			</linearGradient>
			<path class="st0" d="M14.8,105.4C14.8,99.1,20,94,26.2,94c6.2,0,11.4,5.2,11.4,11.4c0,6.2-5.2,11.4-11.4,11.4
				C20,116.8,14.8,111.6,14.8,105.4z"/>
			<linearGradient id="SVGID_2_" gradientUnits="userSpaceOnUse" x1="43.045" y1="73.0922" x2="111.4425" y2="73.0922">
				<stop  offset="0" style="stop-color:#2B90FC"/>
				<stop  offset="1" style="stop-color:#2367B0"/>
			</linearGradient>
			<path class="st1" d="M43,73.1c0-25.9,12.5-43.7,34.2-43.7c21.7,0,34.2,17.8,34.2,43.7S99,116.8,77.2,116.8
				C55.5,116.8,43,99,43,73.1z M92.2,73.1c0-16.2-4.9-25-15-25c-10.1,0-15,8.8-15,25s4.9,25,15,25C87.3,98.1,92.2,89.3,92.2,73.1z"
				/>
			<linearGradient id="SVGID_3_" gradientUnits="userSpaceOnUse" x1="114.4454" y1="72.2524" x2="172.4034" y2="72.2524">
				<stop  offset="0" style="stop-color:#2B90FC"/>
				<stop  offset="1" style="stop-color:#2367B0"/>
			</linearGradient>
			<path class="st2" d="M115.3,101.2l28.2-29.3c4.9-5,8.5-10,8.5-14.9c0-5.3-3.4-8.9-9-8.9c-5.9,0-10.1,3.8-12.4,9.1l-16.2-9.5
				c5.4-12.5,16.7-18.4,28.3-18.4c15,0,28.4,9.8,28.4,26.8c0,10.1-5.4,18.7-13.1,26.4l-13.9,14h28.2v18.5h-57.1V101.2z"/>
		</g>
	</g>
</g>
</svg>
