<?xml version="1.0" encoding="utf-8"?>
<!-- Generator: Adobe Illustrator 19.0.1, SVG Export Plug-In . SVG Version: 6.00 Build 0)  -->
<svg version="1.1" id="Слой_1" xmlns="http://www.w3.org/2000/svg" xmlns:xlink="http://www.w3.org/1999/xlink" x="0px" y="0px"
	 viewBox="0 0 221 150" style="enable-background:new 0 0 221 150;" xml:space="preserve">
<style type="text/css">
	.st0{fill:url(#SVGID_1_);}
	.st1{fill:url(#SVGID_2_);}
	.st2{fill:url(#SVGID_3_);}
</style>
<g>
	
		<image style="overflow:visible;opacity:0.4;" width="1663" height="1364" xlink:href="C17DFF99.png"  transform="matrix(0.24 0 0 0.24 -100.7929 -87.5858)">
	</image>
	<g>
		<g>
			<linearGradient id="SVGID_1_" gradientUnits="userSpaceOnUse" x1="14.2071" y1="108.3713" x2="37.0069" y2="108.3713">
				<stop  offset="0" style="stop-color:#2B90FC"/>
				<stop  offset="1" style="stop-color:#2367B0"/>
			</linearGradient>
			<path class="st0" d="M14.2,108.4c0-6.2,5.2-11.4,11.4-11.4c6.2,0,11.4,5.2,11.4,11.4c0,6.2-5.2,11.4-11.4,11.4
				C19.4,119.8,14.2,114.6,14.2,108.4z"/>
			<linearGradient id="SVGID_2_" gradientUnits="userSpaceOnUse" x1="42.4073" y1="76.0925" x2="110.8048" y2="76.0925">
				<stop  offset="0" style="stop-color:#2B90FC"/>
				<stop  offset="1" style="stop-color:#2367B0"/>
			</linearGradient>
			<path class="st1" d="M42.4,76.1c0-25.9,12.5-43.7,34.2-43.7c21.7,0,34.2,17.8,34.2,43.7s-12.5,43.7-34.2,43.7
				C54.9,119.8,42.4,102,42.4,76.1z M91.6,76.1c0-16.2-4.9-25-15-25c-10.1,0-15,8.8-15,25s4.9,25,15,25
				C86.7,101.1,91.6,92.3,91.6,76.1z"/>
			<linearGradient id="SVGID_3_" gradientUnits="userSpaceOnUse" x1="113.2061" y1="76.9328" x2="173.2042" y2="76.9328">
				<stop  offset="0" style="stop-color:#2B90FC"/>
				<stop  offset="1" style="stop-color:#2367B0"/>
			</linearGradient>
			<path class="st2" d="M173.2,91.7c0,18.5-14.4,28.1-30.6,28.1c-12.7,0-24.2-5.6-29.4-18l16.6-9.6c1.9,5.5,5.5,8.9,12.8,8.9
				c7.9,0,11.4-4.2,11.4-9.4c0-5.2-3.5-9.4-11.4-9.4h-4l-7.3-10.9l15.2-19.3h-30.7v-18h54v15.6l-14.5,18.5
				C165.6,71.8,173.2,80.1,173.2,91.7z"/>
		</g>
	</g>
</g>
</svg>
