<?xml version="1.0" encoding="utf-8"?>
<!-- Generator: Adobe Illustrator 19.0.1, SVG Export Plug-In . SVG Version: 6.00 Build 0)  -->
<svg version="1.1" id="Слой_1" xmlns="http://www.w3.org/2000/svg" xmlns:xlink="http://www.w3.org/1999/xlink" x="0px" y="0px"
	 viewBox="0 0 200 149" style="enable-background:new 0 0 200 149;" xml:space="preserve">
<style type="text/css">
	.st0{fill:url(#SVGID_1_);}
	.st1{fill:url(#SVGID_2_);}
	.st2{fill:url(#SVGID_3_);}
</style>
<g>
	
		<image style="overflow:visible;opacity:0.4;" width="1675" height="1364" xlink:href="9BE6E98C.png"  transform="matrix(0.24 0 0 0.24 -97.7929 -89.5858)">
	</image>
	<g>
		<g>
			<linearGradient id="SVGID_1_" gradientUnits="userSpaceOnUse" x1="17.2071" y1="106.3713" x2="40.0069" y2="106.3713">
				<stop  offset="0" style="stop-color:#2B90FC"/>
				<stop  offset="1" style="stop-color:#2367B0"/>
			</linearGradient>
			<path class="st0" d="M17.2,106.4c0-6.2,5.2-11.4,11.4-11.4c6.2,0,11.4,5.2,11.4,11.4c0,6.2-5.2,11.4-11.4,11.4
				C22.4,117.8,17.2,112.6,17.2,106.4z"/>
			<linearGradient id="SVGID_2_" gradientUnits="userSpaceOnUse" x1="45.4073" y1="74.0925" x2="113.8048" y2="74.0925">
				<stop  offset="0" style="stop-color:#2B90FC"/>
				<stop  offset="1" style="stop-color:#2367B0"/>
			</linearGradient>
			<path class="st1" d="M45.4,74.1c0-25.9,12.5-43.7,34.2-43.7c21.7,0,34.2,17.8,34.2,43.7s-12.5,43.7-34.2,43.7
				C57.9,117.8,45.4,100,45.4,74.1z M94.6,74.1c0-16.2-4.9-25-15-25c-10.1,0-15,8.8-15,25s4.9,25,15,25
				C89.7,99.1,94.6,90.3,94.6,74.1z"/>
			<linearGradient id="SVGID_3_" gradientUnits="userSpaceOnUse" x1="118.6065" y1="74.9328" x2="179.2042" y2="74.9328">
				<stop  offset="0" style="stop-color:#2B90FC"/>
				<stop  offset="1" style="stop-color:#2367B0"/>
			</linearGradient>
			<path class="st2" d="M179.2,89.7c0,18.5-14.4,28.1-30.6,28.1c-13.3,0-24.8-5.6-30-18l16.6-9.6c1.9,5.5,5.5,8.9,13.4,8.9
				c7.9,0,11.4-4.2,11.4-9.4c0-5.2-3.5-9.4-10.8-9.4h-26.3l3.5-48.2H175v18h-30.6l-0.8,11.5h6.8C166,61.6,179.2,71.2,179.2,89.7z"/>
		</g>
	</g>
</g>
</svg>
