<svg xmlns="http://www.w3.org/2000/svg" xmlns:xlink="http://www.w3.org/1999/xlink" width="112" height="108" viewBox="0 0 112 108"><defs><path id="ckkpa" d="M308.38 1083.84l15.06-34.83c8.75-12.5 20.15 1.19 20.15 1.19l27.21 36.15c7.36 15.26-7.86 15.85-7.86 15.85l-41.76-2.27c-14.86-2.99-12.88-15.6-12.88-15.6z"/><path id="ckkpb" d="M317.38 1103.84l15.06-34.83c8.75-12.5 20.15 1.19 20.15 1.19l27.21 36.15c7.36 15.26-7.86 15.85-7.86 15.85l-41.76-2.27c-14.86-2.99-12.88-15.6-12.88-15.6z"/><mask id="ckkpd" width="2" height="2" x="-1" y="-1"><path fill="#fff" d="M308 1043h65v60h-65z"/><use xlink:href="#ckkpa"/></mask><filter id="ckkpc" width="145" height="155" x="268" y="1003" filterUnits="userSpaceOnUse"><feOffset dy="15" in="SourceGraphic" result="FeOffset1030Out"/><feGaussianBlur in="FeOffset1030Out" result="FeGaussianBlur1031Out" stdDeviation="12 12"/></filter><clipPath id="ckkpe"><use fill="#fff" xlink:href="#ckkpb"/></clipPath></defs><g><g transform="translate(-285 -1034)"><g filter="url(#ckkpc)"><use fill="none" stroke-opacity=".38" stroke-width="0" mask="url(&quot;#ckkpd&quot;)" xlink:href="#ckkpa"/><use fill="#3295fe" fill-opacity=".38" xlink:href="#ckkpa"/></g><use fill="#4ca1fc" xlink:href="#ckkpa"/></g><g opacity=".25" transform="translate(-285 -1034)"><use fill="#fff" fill-opacity="0" stroke="#4ca1fc" stroke-miterlimit="50" stroke-width="2" clip-path="url(&quot;#ckkpe&quot;)" xlink:href="#ckkpb"/></g></g></svg>