<?xml version="1.0" encoding="utf-8"?>
<!-- Generator: Adobe Illustrator 19.0.1, SVG Export Plug-In . SVG Version: 6.00 Build 0)  -->
<svg version="1.1" id="Layer_1" xmlns="http://www.w3.org/2000/svg" xmlns:xlink="http://www.w3.org/1999/xlink" x="0px" y="0px"
	 viewBox="-83 331.2 497.9 513.6" style="enable-background:new -83 331.2 497.9 513.6;" xml:space="preserve">
<style type="text/css">
	.st0{fill:#294C71;}
</style>
<g>
	<g>
		<g>
			<path class="st0" d="M406.4,823.3H383v-320c0-14-11.4-25.4-25.4-25.4h-49c-14,0-25.4,11.4-25.4,25.4v320h-58.7V647.6
				c0-14-11.4-25.4-25.4-25.4h-49c-14,0-25.4,11.4-25.4,25.4v175.7H66v-91.7c0-14-11.4-25.4-25.4-25.4h-49
				c-14,0-25.4,11.4-25.4,25.4v91.7h-24.6c-4.7,0-8.5,3.8-8.5,8.5s3.8,8.5,8.5,8.5h464.8c4.7,0,8.5-3.8,8.5-8.5
				S411.1,823.3,406.4,823.3z M49,823.3h-65.8v-91.7c0-4.6,3.8-8.4,8.4-8.4h49c4.6,0,8.4,3.8,8.4,8.4V823.3z M207.5,823.3h-65.8
				V647.6c0-4.6,3.8-8.4,8.4-8.4h49c4.6,0,8.4,3.8,8.4,8.4L207.5,823.3L207.5,823.3z M364.5,821.8h-62.8V503.3
				c0-3.8,3.1-6.9,6.9-6.9h49c3.8,0,6.9,3.1,6.9,6.9V821.8z"/>
			<path class="st0" d="M357.6,494.9h-49c-4.6,0-8.4,3.8-8.4,8.4v320H366v-320C366,498.7,362.2,494.9,357.6,494.9z M363,820.3h-59.8
				v-317c0-3,2.4-5.4,5.4-5.4h49c3,0,5.4,2.4,5.4,5.4V820.3z M357.6,494.9h-49c-4.6,0-8.4,3.8-8.4,8.4v320H366v-320
				C366,498.7,362.2,494.9,357.6,494.9z M363,820.3h-59.8v-317c0-3,2.4-5.4,5.4-5.4h49c3,0,5.4,2.4,5.4,5.4V820.3z M357.6,494.9h-49
				c-4.6,0-8.4,3.8-8.4,8.4v320H366v-320C366,498.7,362.2,494.9,357.6,494.9z M363,820.3h-59.8v-317c0-3,2.4-5.4,5.4-5.4h49
				c3,0,5.4,2.4,5.4,5.4V820.3z M357.6,494.9h-49c-4.6,0-8.4,3.8-8.4,8.4v320H366v-320C366,498.7,362.2,494.9,357.6,494.9z
				 M363,820.3h-59.8v-317c0-3,2.4-5.4,5.4-5.4h49c3,0,5.4,2.4,5.4,5.4V820.3z M357.6,494.9h-49c-4.6,0-8.4,3.8-8.4,8.4v320H366
				v-320C366,498.7,362.2,494.9,357.6,494.9z M363,820.3h-59.8v-317c0-3,2.4-5.4,5.4-5.4h49c3,0,5.4,2.4,5.4,5.4V820.3z
				 M357.6,494.9h-49c-4.6,0-8.4,3.8-8.4,8.4v320H366v-320C366,498.7,362.2,494.9,357.6,494.9z M363,820.3h-59.8v-317
				c0-3,2.4-5.4,5.4-5.4h49c3,0,5.4,2.4,5.4,5.4V820.3z M357.6,494.9h-49c-4.6,0-8.4,3.8-8.4,8.4v320H366v-320
				C366,498.7,362.2,494.9,357.6,494.9z M363,820.3h-59.8v-317c0-3,2.4-5.4,5.4-5.4h49c3,0,5.4,2.4,5.4,5.4V820.3z M357.6,494.9h-49
				c-4.6,0-8.4,3.8-8.4,8.4v320H366v-320C366,498.7,362.2,494.9,357.6,494.9z M363,820.3h-59.8v-317c0-3,2.4-5.4,5.4-5.4h49
				c3,0,5.4,2.4,5.4,5.4V820.3z M357.6,494.9h-49c-4.6,0-8.4,3.8-8.4,8.4v320H366v-320C366,498.7,362.2,494.9,357.6,494.9z
				 M363,820.3h-59.8v-317c0-3,2.4-5.4,5.4-5.4h49c3,0,5.4,2.4,5.4,5.4V820.3z"/>
		</g>
	</g>
</g>
<g>
	<g>
		<g>
			<path class="st0" d="M383,340.8v57c0,4.7-3.8,8.5-8.5,8.5s-8.5-3.8-8.5-8.5v-37.4L257.5,468.8c-3.3,3.3-8.7,3.3-12,0l-38.3-38.3
				L33.4,604.2c-1.6,1.6-3.7,2.5-6,2.5s-4.4-0.9-6-2.5c-3.3-3.3-3.3-8.7,0-12l179.8-179.8c1.6-1.6,3.7-2.5,6-2.5
				c2.2,0,4.4,0.9,6,2.5l38.3,38.3L354,348.2h-41c-4.7,0-8.5-3.8-8.5-8.5c0-4.7,3.8-8.5,8.5-8.5h60.5c0.1,0,0.1,0,0.2,0h0.3h0.1
				c2.4-0.1,4.8,0.8,6.4,2.5c1.6,1.7,2.6,4,2.5,6.5v0.1v0.3C383,340.7,383,340.7,383,340.8z"/>
		</g>
	</g>
</g>
<g>
	<g>
		<g>
			<path class="st0" d="M2.1,633.1c0,4.7-3.8,8.5-8.5,8.5s-8.5-3.8-8.5-8.5s3.8-8.5,8.5-8.5S2.1,628.4,2.1,633.1z"/>
		</g>
	</g>
</g>
</svg>
