<?xml version="1.0" encoding="utf-8"?>
<!-- Generator: Adobe Illustrator 22.0.1, SVG Export Plug-In . SVG Version: 6.00 Build 0)  -->
<svg version="1.1" id="Capa_1" xmlns="http://www.w3.org/2000/svg" xmlns:xlink="http://www.w3.org/1999/xlink" x="0px" y="0px"
	 viewBox="0 0 394.5 394.5" style="enable-background:new 0 0 394.5 394.5;" xml:space="preserve">
<style type="text/css">
	.st0{fill:#20456B;stroke:#20456B;stroke-width:3;stroke-miterlimit:10;}
</style>
<g>
	<path class="st0" d="M181.2,84.4c-30.4,30.4-30.4,79.9,0,110.3c15.2,15.2,35.2,22.8,55.2,22.8s39.9-7.6,55.2-22.8
		c30.4-30.4,30.4-79.9,0-110.3C261.1,54,211.7,54,181.2,84.4z M295,174v-69C307.5,126.2,307.5,152.8,295,174z M285,92v95.1
		c-0.2,0.2-0.3,0.4-0.5,0.5c-26.5,26.5-69.7,26.5-96.2,0c-4-4-7.3-8.3-10.1-12.9h5.8c2.8,0,5-2.2,5-5s-2.2-5-5-5h-10.7
		c-3.9-9.9-5.4-20.5-4.6-30.9H208c2.8,0,5-2.2,5-5s-2.2-5-5-5h-37.7c2.7-11.3,8.2-22,16.7-30.9h64c2.8,0,5-2.2,5-5s-2.2-5-5-5h-52.3
		c11.4-7.6,24.5-11.3,37.7-11.3c17.4,0,34.8,6.6,48.1,19.9C284.7,91.6,284.8,91.8,285,92z"/>
	<path class="st0" d="M389.2,266.9l-72.4-72.4c11-16.1,17-35,17-54.9c0-26-10.1-50.4-28.5-68.8c-7.6-7.6-16.1-13.6-25.2-18.2V7.8
		c0-2.8-2.2-5-5-5H55.7c-1.3,0-2.6,0.5-3.5,1.5L1.5,55C0.6,55.9,0,57.2,0,58.5v328.3c0,2.8,2.2,5,5,5h270c2.8,0,5-2.2,5-5V226.5
		c3.9-1.9,7.7-4.2,11.3-6.6l72.5,72.5c3.5,3.5,8.1,5.3,12.7,5.3s9.2-1.8,12.7-5.3c3.4-3.4,5.3-7.9,5.3-12.7
		C394.5,274.8,392.6,270.3,389.2,266.9z M323.7,139.5c0,23.3-9.1,45.3-25.6,61.8c-34.1,34.1-89.5,34.1-123.5,0
		c-16.5-16.5-25.6-38.4-25.6-61.8c0-23.3,9.1-45.3,25.6-61.8c17-17,39.4-25.5,61.8-25.5s44.7,8.5,61.8,25.5
		C314.7,94.3,323.7,116.2,323.7,139.5z M50.7,19.8v33.6H17.1L50.7,19.8z M270,381.7H10V63.4h45.7c2.8,0,5-2.2,5-5V12.7H270v35.4
		c-34.5-12.6-74.8-5.2-102.4,22.5c-6.2,6.2-11.4,13-15.6,20.4h-47c-2.8,0-5,2.2-5,5s2.2,5,5,5h41.9c-2.8,6.6-4.9,13.4-6.2,20.5H48.5
		c-2.8,0-5,2.2-5,5s2.2,5,5,5h90.9c-0.2,2.6-0.3,5.3-0.3,8c0,4.2,0.3,8.4,0.8,12.5H93c-2.8,0-5,2.2-5,5s2.2,5,5,5h48.7
		c1.7,7.1,4.1,14,7.4,20.5H48.5c-2.8,0-5,2.2-5,5s2.2,5,5,5h106.2c3.7,5.6,8,10.9,12.8,15.8c1.6,1.6,3.3,3.2,5.1,4.7h-17.1
		c-2.8,0-5,2.2-5,5s2.2,5,5,5h30.9c15.3,9.2,32.7,13.8,50,13.8c11.4,0,22.8-2,33.6-6V381.7z M305.2,208.4c1.9-1.9,3.7-3.9,5.4-5.9
		l51.3,51.3l-11.3,11.3l-51.3-51.3C301.3,212,303.3,210.3,305.2,208.4z M382.2,285.3c-3.1,3.1-8.2,3.1-11.3,0l-13.2-13.2l11.3-11.3
		l13.2,13.2c1.5,1.5,2.3,3.5,2.3,5.7S383.7,283.8,382.2,285.3z"/>
	<path class="st0" d="M48.5,101h40c2.8,0,5-2.2,5-5s-2.2-5-5-5h-40c-2.8,0-5,2.2-5,5C43.5,98.8,45.7,101,48.5,101z"/>
	<path class="st0" d="M48.5,162H76c2.8,0,5-2.2,5-5s-2.2-5-5-5H48.5c-2.8,0-5,2.2-5,5C43.5,159.8,45.7,162,48.5,162z"/>
	<path class="st0" d="M48.5,223h92.3c2.8,0,5-2.2,5-5s-2.2-5-5-5H48.5c-2.8,0-5,2.2-5,5C43.5,220.8,45.7,223,48.5,223z"/>
	<path class="st0" d="M231.5,243.5h-145c-2.8,0-5,2.2-5,5s2.2,5,5,5h145c2.8,0,5-2.2,5-5C236.5,245.8,234.3,243.5,231.5,243.5z"/>
	<path class="st0" d="M48.5,253.5h22c2.8,0,5-2.2,5-5s-2.2-5-5-5h-22c-2.8,0-5,2.2-5,5C43.5,251.3,45.7,253.5,48.5,253.5z"/>
	<path class="st0" d="M231.5,304.5H137c-2.8,0-5,2.2-5,5s2.2,5,5,5h94.5c2.8,0,5-2.2,5-5S234.3,304.5,231.5,304.5z"/>
	<path class="st0" d="M48.5,314.5h72.8c2.8,0,5-2.2,5-5s-2.2-5-5-5H48.5c-2.8,0-5,2.2-5,5S45.7,314.5,48.5,314.5z"/>
	<path class="st0" d="M231.5,335H178c-2.8,0-5,2.2-5,5s2.2,5,5,5h53.5c2.8,0,5-2.2,5-5S234.3,335,231.5,335z"/>
	<path class="st0" d="M163.1,335H73.6c-2.8,0-5,2.2-5,5s2.2,5,5,5h89.5c2.8,0,5-2.2,5-5S165.9,335,163.1,335z"/>
	<path class="st0" d="M58.5,335h-10c-2.8,0-5,2.2-5,5s2.2,5,5,5h10c2.8,0,5-2.2,5-5S61.3,335,58.5,335z"/>
	<path class="st0" d="M231.5,274H201c-2.8,0-5,2.2-5,5s2.2,5,5,5h30.5c2.8,0,5-2.2,5-5S234.3,274,231.5,274z"/>
	<path class="st0" d="M48.5,284h135c2.8,0,5-2.2,5-5s-2.2-5-5-5h-135c-2.8,0-5,2.2-5,5S45.7,284,48.5,284z"/>
	<path class="st0" d="M251,123.8h-17.5c-2.8,0-5,2.2-5,5s2.2,5,5,5H251c2.8,0,5-2.2,5-5C256,126.1,253.8,123.8,251,123.8z"/>
	<path class="st0" d="M251,164.7h-46c-2.8,0-5,2.2-5,5s2.2,5,5,5h46c2.8,0,5-2.2,5-5C256,167,253.8,164.7,251,164.7z"/>
</g>
</svg>
