<?xml version="1.0" encoding="utf-8"?>
<!-- Generator: Adobe Illustrator 22.0.1, SVG Export Plug-In . SVG Version: 6.00 Build 0)  -->
<svg version="1.1" id="Capa_1" xmlns="http://www.w3.org/2000/svg" xmlns:xlink="http://www.w3.org/1999/xlink" x="0px" y="0px"
	 viewBox="0 0 480 480" style="enable-background:new 0 0 480 480;" xml:space="preserve">
<style type="text/css">
	.st0{fill:#20456B;}
</style>
<g>
	<g>
		<path class="st0" d="M160,0C93.7,0,40,53.7,40,120v88c0,30.9,25.1,56,56,56h8v-16h-8c-22.1,0-40-17.9-40-40v-88
			c0-57.4,46.6-104,104-104s104,46.6,104,104v88c0,22.1-17.9,40-40,40h-8v16h8c30.9,0,56-25.1,56-56v-88C280,53.7,226.3,0,160,0z"/>
	</g>
</g>
<g>
	<g>
		<path class="st0" d="M65.9,377l5.8-9.2l-13.5-8.6l-5.8,9.2c-17.7,27.9-16.4,63.8,3.3,90.3V480h16v-24c0-1.8-0.6-3.6-1.8-5
			C53,429.7,51.3,400,65.9,377z"/>
	</g>
</g>
<g>
	<g>
		<path class="st0" d="M440,0H336c-22.1,0-40,17.9-40,40v80c0,22.1,17.9,40,40,40h16v32c0,3.2,1.9,6.2,4.9,7.4c1,0.4,2,0.6,3.1,0.6
			c2.1,0,4.2-0.8,5.7-2.3l37.7-37.7H440c22.1,0,40-17.9,40-40V40C480,17.9,462.1,0,440,0z M464,120c0,13.3-10.7,24-24,24h-40
			c-2.1,0-4.2,0.8-5.7,2.3L368,172.7V152c0-4.4-3.6-8-8-8h-24c-13.3,0-24-10.7-24-24V40c0-13.3,10.7-24,24-24h104
			c13.3,0,24,10.7,24,24V120z"/>
	</g>
</g>
<g>
	<g>
		<rect x="336" y="40" class="st0" width="56" height="16"/>
	</g>
</g>
<g>
	<g>
		<rect x="408" y="40" class="st0" width="32" height="16"/>
	</g>
</g>
<g>
	<g>
		<rect x="336" y="72" class="st0" width="104" height="16"/>
	</g>
</g>
<g>
	<g>
		<rect x="336" y="104" class="st0" width="56" height="16"/>
	</g>
</g>
<g>
	<g>
		<path class="st0" d="M267.6,368.5l-5.8-9.2l-13.5,8.6l5.8,9.2c14.6,23,13,52.7-4,74c-1.1,1.4-1.8,3.2-1.8,5v24h16v-21.3
			C284,432.2,285.3,396.3,267.6,368.5z"/>
	</g>
</g>
<g>
	<g>
		<path class="st0" d="M472,272h-72c-30,0-54.7,23.7-55.9,53.7L320,369.1V336c0-30.9-25.1-56-56-56h-29.2l-0.2-0.2l-0.1,0.2H216
			c-8.8,0-16-7.2-16-16v-18.8c24.7-14.3,40-40.6,40-69.2v-64c0-13.3-3.3-26.3-9.6-38c-2-3.7-6.6-5.2-10.4-3.4L84.6,134.3
			c-2.8,1.3-4.6,4.1-4.6,7.2V176c0,28.5,15.3,54.9,40,69.2V264c0,8.8-7.2,16-16,16H56c-30.9,0-56,25.1-56,56v144h16V336
			c0-22.1,17.9-40,40-40h25.5l72,100.7c1.5,2.1,3.9,3.3,6.4,3.3h0.1c2.5,0,4.9-1.2,6.4-3.2l76-100.8H264c22.1,0,40,17.9,40,40v64
			c0,4.4,3.6,8,8,8c2.9,0,5.6-1.6,7-4.1l37.7-67.9h45.9l-78,144h18.2l78-144h3.2c30.9,0,56-25.1,56-56C480,275.6,476.4,272,472,272z
			 M96,176v-29.4l123.5-58.1c3,7.5,4.5,15.5,4.5,23.5v64c0,35.3-28.7,64-64,64S96,211.3,96,176z M160.2,378.5L135.5,344h50.7
			L160.2,378.5z M198.3,328H124l-22.9-32h2.9c17.7,0,32-14.3,32-32v-11.7c15.6,4.9,32.4,4.9,48,0V264c0,17.7,14.3,32,32,32h6.4
			L198.3,328z M424,320h-63.2c3.8-18.6,20.2-32,39.2-32h63.2C459.4,306.6,443,320,424,320z"/>
	</g>
</g>
</svg>
