<?xml version="1.0" encoding="utf-8"?>
<!-- Generator: Adobe Illustrator 22.0.1, SVG Export Plug-In . SVG Version: 6.00 Build 0)  -->
<svg version="1.1" id="Capa_1" xmlns="http://www.w3.org/2000/svg" xmlns:xlink="http://www.w3.org/1999/xlink" x="0px" y="0px"
	 viewBox="0 0 394.5 394.5" style="enable-background:new 0 0 394.5 394.5;" xml:space="preserve">
<style type="text/css">
	.st0{fill:#20456B;}
</style>
<g>
	<g>
		<path class="st0" d="M278.9,269.5l-19.7-10.4c-15.4-9.4-35.6-4.5-45,10.9c-0.2,0.4-0.4,0.7-0.6,1.1l-9,13.4
			c-42.1-28.8-78.4-65.3-107-107.4l13.4-8.9c9.7-6.6,24-21.5,11-47.3l-9.4-18C98.8,77.4,78.4,80.5,67.4,84.7l-45.7,18.1
			c-9.5,3.2-17,10.6-20.2,20.2c-3.1,13-1.3,26.7,5,38.5C53.3,253.9,128.5,329,220.9,375.7c8,4.2,16.9,6.5,26,6.8
			c14.1,0.1,26.7-8.4,32-21.4v-0.6l18.2-45.8C301.3,303.7,304.4,283.3,278.9,269.5z M286.2,310.3l-17.8,45.4
			c-2.4,5.8-7,10.5-12.9,13c-9.9,2.7-20.4,1.2-29.2-4.1C136.1,319,62.7,245.7,17,155.5c-4.7-8.9-6.2-19.2-4.1-29.1
			c2.1-6.1,7-10.8,13.2-12.6l45.7-18.1c3.2-1.3,6.7-2,10.2-2.1c9,0.6,16.9,6.4,20.2,14.8l9.2,18c4.4,8.6,8.5,21.4-7,32l-18.5,12.2
			c-2.6,1.8-3.3,5.3-1.7,8c31.3,47.4,71.9,88.1,119.3,119.4c2.7,1.6,6.2,0.9,8-1.7l12.2-18.5c5.1-10.3,17.5-14.5,27.8-9.4
			c0.8,0.4,1.6,0.9,2.4,1.4l19.5,10.2C282.1,284.7,292.8,293,286.2,310.3z"/>
	</g>
</g>
<g>
	<g>
		<path class="st0" d="M345.7,83.1c-3.8-40-45.2-71.2-96-71.2c-53,0-96,34.6-96,77c0.6,23,12.2,44.2,31.3,57v47.4c0,3.3,2.7,6,6,6
			c1.5,0,3-0.6,4.1-1.6l36.2-33.1c2.9,0.5,5.7,0.8,8.6,1c11.8,24.7,41.2,41,74.6,41c5,0,10-0.4,15-1.1l29.4,26.9
			c2.4,2.3,6.2,2.1,8.5-0.3c1-1.1,1.6-2.6,1.6-4.1v-38.4c15.7-10.8,25.2-28.4,25.6-47.4C394.5,116.5,375,93.1,345.7,83.1z
			 M248.7,154.1c-6.1,0-12.2-0.6-18.2-1.7c-1.8-0.4-3.7,0.2-5.1,1.4L197,179.8v-36.9c0-2-1-3.8-2.6-5
			c-17.1-10.5-27.8-28.8-28.6-48.8c0-35.8,37.8-65,84.2-65s84.2,29.2,84.2,65c0,3.8-0.5,7.5-1.4,11.2c-3.7,12.8-11,24.2-21,32.8
			C293.7,147.2,271.5,154.6,248.7,154.1z M359.4,181.5c-1.6,1.1-2.6,3-2.6,5v27.9l-21.4-19.6c-1.1-1-2.6-1.6-4.1-1.6h-1.1
			c-5.3,1-10.6,1.5-16,1.4c-23.5,0.8-46-9.7-60.4-28.2c24.4-0.9,47.8-9.6,66.9-24.9c12-10.3,20.4-24.1,24-39.4
			c0-1.7,0.7-3.2,0.9-4.6v-1c22.5,8.6,37,26.5,37,45.9C381.8,158.4,373.2,173.1,359.4,181.5z"/>
	</g>
</g>
</svg>
