<?xml version="1.0" encoding="utf-8"?>
<!-- Generator: Adobe Illustrator 22.0.1, SVG Export Plug-In . SVG Version: 6.00 Build 0)  -->
<svg version="1.1" id="Capa_1" xmlns="http://www.w3.org/2000/svg" xmlns:xlink="http://www.w3.org/1999/xlink" x="0px" y="0px"
	 viewBox="0 0 480 480" style="enable-background:new 0 0 480 480;" xml:space="preserve">
<style type="text/css">
	.st0{fill:#20456B;}
</style>
<g>
	<g>
		<path class="st0" d="M477,465.8l-40-32c-1.4-1.1-3.2-1.8-5-1.8h-76.2l-26.7-32H440c22.1,0,40-17.9,40-40V40c0-22.1-17.9-40-40-40
			H40C17.9,0,0,17.9,0,40v320c0,22.1,17.9,40,40,40h110.9l-26.7,32H48c-1.8,0-3.6,0.6-5,1.8l-40,32c-3.5,2.8-4,7.8-1.3,11.2
			c1.5,1.9,3.8,3,6.3,3h464c4.4,0,8-3.6,8-8C480,469.6,478.9,467.3,477,465.8z M40,384c-13.3,0-24-10.7-24-24V40
			c0-13.3,10.7-24,24-24h400c13.3,0,24,10.7,24,24v320c0,13.3-10.7,24-24,24H40z M171.8,400h136.5l26.7,32H145.1L171.8,400z
			 M30.8,464l20-16h378.4l20,16H30.8z"/>
	</g>
</g>
<g>
	<g>
		<path class="st0" d="M440,32H40c-4.4,0-8,3.6-8,8v288c0,4.4,3.6,8,8,8h400c4.4,0,8-3.6,8-8V40C448,35.6,444.4,32,440,32z M432,320
			H48V48h384V320z"/>
	</g>
</g>
<g>
	<g>
		<rect x="200" y="352" class="st0" width="80" height="16"/>
	</g>
</g>
<g>
	<g>
		<path class="st0" d="M168,136h16c0-17.7,14.3-32,32-32V88C189.5,88,168,109.5,168,136z"/>
	</g>
</g>
<g>
	<g>
		<path class="st0" d="M408,64H72c-4.4,0-8,3.6-8,8v32c0,4.4,3.6,8,8,8h76.2c-7,19.6-5.2,41.3,5.1,59.3l-9.3,9.3l-2.3-2.3
			c-3.1-3.1-8.2-3.1-11.3,0l-64,64c-12,12-12,31.4,0,43.3c12,12,31.4,12,43.3,0l64-64c3.1-3.1,3.1-8.2,0-11.3l-2.3-2.3l9.3-9.3
			c34.5,19.6,78.3,7.5,98-26.9c10.3-18.2,12.2-40,5.2-59.7H408c4.4,0,8-3.6,8-8V72C416,67.6,412.4,64,408,64z M80,96V80h90.8
			c-5.7,4.6-10.6,10-14.7,16H80z M98.3,274.3c-5.8,5.6-15.1,5.4-20.7-0.4c-5.4-5.7-5.4-14.6,0-20.2l58.3-58.3l2.3,2.3l16,16l2.3,2.3
			L98.3,274.3z M160,196.7l-4.7-4.7l7.6-7.6c1.5,1.6,3.1,3.2,4.7,4.7L160,196.7z M216,192c-30.9,0-56-25.1-56-56s25.1-56,56-56
			c30.9,0,56,25.1,56,56C272,166.9,246.9,192,216,192z M400,96H275.8c-4.1-6-9-11.4-14.7-16H400L400,96L400,96z"/>
	</g>
</g>
<g>
	<g>
		<path class="st0" d="M408,144h-48v16h28.7l-46.3,46.3l-26.8-13.4c-2.9-1.5-6.4-1-8.9,1.2l-67.4,59.9l-18.9-12.6
			c-3-2-6.9-1.7-9.6,0.6l-56,48l10.4,12.2l51.4-44.1l19,12.6c3,2,7,1.7,9.8-0.7l68-60.4l27.2,13.6c3.1,1.5,6.8,0.9,9.2-1.5
			l50.3-50.4V200h16v-48C416,147.6,412.4,144,408,144z"/>
	</g>
</g>
</svg>
