<?xml version="1.0" encoding="utf-8"?>
<!-- Generator: Adobe Illustrator 19.0.1, SVG Export Plug-In . SVG Version: 6.00 Build 0)  -->
<svg version="1.1" id="Capa_1" xmlns="http://www.w3.org/2000/svg" xmlns:xlink="http://www.w3.org/1999/xlink" x="0px" y="0px"
	 viewBox="-117 363.3 481.5 477" style="enable-background:new -117 363.3 481.5 477;" xml:space="preserve">
<style type="text/css">
	.st0{fill:#294C71;}
</style>
<g>
	<g>
		<g>
			<g>
				<path class="st0" d="M358,779.3h-9.5V529.8c0-3.6-2.9-6.5-6.5-6.5H-90c-3.6,0-6.5,2.9-6.5,6.5v249.5h-9.5
					c-3.6,0-6.5,2.9-6.5,6.5v16c0,21.2,17.3,38.5,38.5,38.5h400c21.2,0,38.5-17.3,38.5-38.5v-16C364.5,782.2,361.6,779.3,358,779.3z
					 M-83.5,536.3h419v243H190c-1.7,0-3.4,0.7-4.6,1.9l-14.1,14.1H80.7l-14.1-14.1c-1.2-1.2-2.9-1.9-4.6-1.9H-83.5V536.3z
					 M351.5,801.8c0,14.1-11.4,25.5-25.5,25.5H-74c-14.1,0-25.5-11.4-25.5-25.5v-9.5H59.3l14.1,14.1c1.2,1.2,2.9,1.9,4.6,1.9h96
					c1.7,0,3.4-0.7,4.6-1.9l14.1-14.1h158.8L351.5,801.8L351.5,801.8z"/>
			</g>
			<g>
				<path class="st0" d="M-72.5,547.3v179.8l78.7-61.2l56.4,40.3l96.4-88.3l96,55.9l69.7-69.7v-56.7L-72.5,547.3L-72.5,547.3z
					 M311.5,598.6l-58.8,58.8l-95.6-55.7l-95.6,87.7L5.9,649.6l-65.3,50.8V560.3h371v38.3H311.5z"/>
			</g>
			<g>
				<path class="st0" d="M260.5,481.8v24c0,3.6-2.9,6.5-6.5,6.5s-6.5-2.9-6.5-6.5v-18.5l-29-4.8c-2.6-0.4-4.7-2.4-5.3-5
					c-2.2-9.6-6-18.7-11.2-27c-1.4-2.3-1.3-5.1,0.2-7.2l17.1-23.9l-14.8-14.8l-23.9,17.1c-2.2,1.5-5,1.6-7.2,0.2
					c-8.3-5.2-17.4-9-27-11.2c-2.6-0.6-4.5-2.7-5-5.3l-4.9-29h-21l-4.9,29c-0.4,2.6-2.4,4.7-5,5.3c-9.6,2.2-18.7,6-27,11.2
					c-2.3,1.4-5.1,1.3-7.2-0.2l-23.9-17.1l-14.8,14.8l17.1,23.9c1.5,2.2,1.6,5,0.2,7.2c-5.2,8.3-9,17.4-11.2,27
					c-0.6,2.6-2.7,4.5-5.3,5l-29,4.9v18.5c0,3.6-2.9,6.5-6.5,6.5s-6.5-2.9-6.5-6.5v-24c0-3.2,2.3-5.9,5.4-6.4l30.3-5.1l0.3-0.9
					c2.1-7.4,5.1-14.6,8.8-21.3l0.5-0.8L19,422.5c-1.9-2.6-1.6-6.1,0.7-8.4l22.6-22.6c2.3-2.3,5.8-2.5,8.4-0.7l24.9,17.8l0.8-0.5
					c6.7-3.7,13.9-6.7,21.3-8.8l0.9-0.3l5.1-30.3c0.5-3.1,3.2-5.4,6.4-5.4h32c3.2,0,5.9,2.3,6.4,5.4l5.1,30.3l0.9,0.3
					c7.4,2.1,14.5,5.1,21.3,8.8l0.8,0.5l24.9-17.9c2.6-1.9,6.1-1.6,8.4,0.7l22.6,22.6c2.3,2.3,2.5,5.8,0.7,8.4l-17.8,24.9l0.5,0.8
					c3.7,6.7,6.7,13.9,8.8,21.3l0.3,0.9l30.3,5.1C258.2,475.9,260.5,478.6,260.5,481.8z"/>
			</g>
			<g>
				<path class="st0" d="M188.5,497.8c0,3.6-2.9,6.5-6.5,6.5s-6.5-2.9-6.5-6.5c0-27.3-22.2-49.5-49.5-49.5s-49.5,22.2-49.5,49.5
					c0,3.6-2.9,6.5-6.5,6.5s-6.5-2.9-6.5-6.5c0-34.5,28-62.5,62.5-62.5S188.5,463.3,188.5,497.8z"/>
			</g>
			<g>
				<path class="st0" d="M156.5,497.8c0,3.6-2.9,6.5-6.5,6.5s-6.5-2.9-6.5-6.5c0-9.7-7.8-17.5-17.5-17.5s-17.5,7.8-17.5,17.5
					c0,3.6-2.9,6.5-6.5,6.5s-6.5-2.9-6.5-6.5c0-16.8,13.7-30.5,30.5-30.5S156.5,481,156.5,497.8z"/>
			</g>
			<g>
				<polygon class="st0" points="324.5,635.3 324.5,768.3 -72.5,768.3 -72.5,747.3 -59.5,747.3 -59.5,755.3 -40.5,755.3 
					-40.5,723.3 -27.5,723.3 -27.5,755.3 -8.5,755.3 -8.5,699.3 4.5,699.3 4.5,755.3 23.5,755.3 23.5,707.3 36.5,707.3 36.5,755.3 
					55.5,755.3 55.5,723.3 68.5,723.3 68.5,755.3 87.5,755.3 87.5,707.3 100.5,707.3 100.5,755.3 119.5,755.3 119.5,675.3 
					132.5,675.3 132.5,755.3 151.5,755.3 151.5,643.3 164.5,643.3 164.5,755.3 183.5,755.3 183.5,659.3 196.5,659.3 196.5,755.3 
					215.5,755.3 215.5,675.3 228.5,675.3 228.5,755.3 247.5,755.3 247.5,691.3 260.5,691.3 260.5,755.3 279.5,755.3 279.5,667.3 
					292.5,667.3 292.5,755.3 311.5,755.3 311.5,635.3 				"/>
			</g>
		</g>
	</g>
</g>
</svg>
