<?xml version="1.0" encoding="utf-8"?>
<!-- Generator: Adobe Illustrator 19.0.1, SVG Export Plug-In . SVG Version: 6.00 Build 0)  -->
<svg version="1.1" id="Capa_1" xmlns="http://www.w3.org/2000/svg" xmlns:xlink="http://www.w3.org/1999/xlink" x="0px" y="0px"
	 viewBox="-79.5 332.3 507 507" style="enable-background:new -79.5 332.3 507 507;" xml:space="preserve">
<style type="text/css">
	.st0{fill:#294C71;}
</style>
<g>
	<g>
		<g>
			<path class="st0" d="M154.5,693.8c0,2-0.8,3.9-2.2,5.3s-3.3,2.2-5.3,2.2s-3.9-0.8-5.3-2.2c-1.4-1.4-2.2-3.3-2.2-5.3
				s0.8-3.9,2.2-5.3c1.4-1.4,3.3-2.2,5.3-2.2s3.9,0.8,5.3,2.2l0,0C153.7,689.9,154.5,691.8,154.5,693.8z"/>
		</g>
	</g>
</g>
<g>
	<g>
		<g>
			<path class="st0" d="M366,600.3c-4.1,0-7.5,3.4-7.5,7.5v46.5h-177v-27.2c0-36.3-27.2-67.1-63.2-71.6l-4.5-0.6l2.8-3.5
				c7.1-8.8,11.1-19.9,11.1-31.3v-70.2c0-4.1-3.4-7.5-7.5-7.5H67.9c-21.9,0-39.7,17.8-39.7,39.7v38.2c0,11.3,3.9,22.4,11.1,31.3
				l2.8,3.5l-4.5,0.6c-36,4.5-63.2,35.2-63.2,71.6v27.2h-39v-243c0-5.6,4.6-10.3,10.3-10.3h207.9c4.1,0,7.5-3.4,7.5-7.5
				c0-4.1-3.4-7.5-7.5-7.5H-54.2c-14,0-25.3,11.3-25.3,25.3V708c0,13.9,11.3,25.3,25.3,25.3h154.7v51l-2.3,0.2
				c-24.4,2.5-42.7,22.8-42.7,47.3c0,4.1,3.4,7.5,7.5,7.5h168c4.1,0,7.5-3.4,7.5-7.5c0-24.5-18.4-44.8-42.7-47.3l-2.3-0.2v-51h154.7
				c14,0,25.3-11.3,25.3-25.3V607.8C373.5,603.7,370.1,600.3,366,600.3z M43.3,482c0-13.6,11.1-24.6,24.7-24.6h44.8v18.5
				c0,9.3-7.6,16.9-16.9,16.9H43.3V482z M43.3,507.7h52.6c4.7,0,9.1-1,13.3-2.9l3.5-1.6v17.1c0,19.2-15.6,34.7-34.7,34.7
				s-34.7-15.6-34.7-34.7V507.7z M95.7,570L78,587.7L60.3,570L95.7,570L95.7,570z M-10.5,627.1c0-28.1,21-52.4,48.8-56.5l1.3-0.2
				l33.2,33.2c1.4,1.4,3.3,2.2,5.3,2.2s3.9-0.8,5.3-2.2l33.2-33.2l1.3,0.2c27.8,4.1,48.8,28.4,48.8,56.5v27.2h-177v-27.2H-10.5z
				 M221.7,820.9l1.2,3.3H71.2l1.2-3.3c4.6-13,16.9-21.7,30.7-21.7H191C204.7,799.2,217,807.9,221.7,820.9z M115.5,784.2v-50.9h63
				v50.9H115.5z M358.5,708c0,5.7-4.6,10.3-10.3,10.3H-54.2c-5.7,0-10.3-4.6-10.3-10.3v-38.8h423V708z"/>
		</g>
	</g>
</g>
<g>
	<g>
		<g>
			<path class="st0" d="M373.5,570.1c0,2-0.8,3.9-2.2,5.3c-1.4,1.4-3.3,2.2-5.3,2.2s-3.9-0.8-5.3-2.2c-1.4-1.4-2.2-3.3-2.2-5.3
				s0.8-3.9,2.2-5.3c1.4-1.4,3.3-2.2,5.3-2.2s3.9,0.8,5.3,2.2C372.7,566.2,373.5,568.2,373.5,570.1z"/>
		</g>
	</g>
</g>
<g>
	<g>
		<g>
			<path class="st0" d="M373.5,386.8c0,4.1-3.4,7.5-7.5,7.5h-75c-4.1,0-7.5-3.4-7.5-7.5s3.4-7.5,7.5-7.5h75
				C370.1,379.3,373.5,382.7,373.5,386.8z"/>
		</g>
	</g>
</g>
<g>
	<g>
		<g>
			<path class="st0" d="M257.5,386.8c0,2-0.8,3.9-2.2,5.3c-1.4,1.4-3.3,2.2-5.3,2.2s-3.9-0.8-5.3-2.2c-1.4-1.4-2.2-3.3-2.2-5.3
				s0.8-3.9,2.2-5.3c1.4-1.4,3.3-2.2,5.3-2.2s3.9,0.8,5.3,2.2C256.7,382.9,257.5,384.8,257.5,386.8z"/>
		</g>
	</g>
</g>
<g>
	<g>
		<g>
			<path class="st0" d="M373.5,430.8c0,4.1-3.4,7.5-7.5,7.5H250c-4.1,0-7.5-3.4-7.5-7.5s3.4-7.5,7.5-7.5h116
				C370.1,423.3,373.5,426.7,373.5,430.8z"/>
		</g>
	</g>
</g>
<g>
	<g>
		<g>
			<path class="st0" d="M373.5,474.8c0,4.1-3.4,7.5-7.5,7.5H250c-4.1,0-7.5-3.4-7.5-7.5s3.4-7.5,7.5-7.5h116
				C370.1,467.3,373.5,470.7,373.5,474.8z"/>
		</g>
	</g>
</g>
<g>
	<g>
		<g>
			<path class="st0" d="M380,332.3H236c-26.2,0-47.5,21.3-47.5,47.5v107c0,24.2,18.1,44.5,42.1,47.2l2.2,0.3v28.2
				c0,3,1.8,5.8,4.6,6.9c0.9,0.4,1.9,0.6,2.9,0.6c2,0,3.9-0.8,5.3-2.2l33.5-33.5H380c26.2,0,47.5-21.3,47.5-47.5v-107
				C427.5,353.6,406.2,332.3,380,332.3z M412.5,486.8c0,17.9-14.6,32.5-32.5,32.5H276c-2,0-3.9,0.8-5.3,2.2l-22.9,22.9v-17.6
				c0-4.1-3.4-7.5-7.5-7.5H236c-17.9,0-32.5-14.6-32.5-32.5v-107c0-17.9,14.6-32.5,32.5-32.5h144c17.9,0,32.5,14.6,32.5,32.5V486.8z
				"/>
		</g>
	</g>
</g>
</svg>
